{"title":"Match of the Day - S51E06 - 12th September 2015 - 720p x264","uid":12407144,"size":1795177461,"categoryP":"video","categoryS":"hd___tv_shows","magnet":"?xt=urn:btih:49cb99e0b828176bcfda71ac446b3a8188ca2003&amp;dn=Match+of+the+Day+-+S51E06+-+12th+September+2015+-+720p+x264&amp;tr=udp%3A%2F%2Ftracker.openbittorrent.com%3A80&amp;tr=udp%3A%2F%2Fopen.demonii.com%3A1337&amp;tr=udp%3A%2F%2Ftracker.coppersurfer.tk%3A6969&amp;tr=udp%3A%2F%2Fexodus.desync.com%3A6969","seeders":8,"leechers":0,"uploader":"rugbybill","files":3,"time":1442107367,"description":"SPORT: Match of the Day\nOn: BBC 1 HD \nDate: Saturday 12th September 2015 \nTime: 22:50 to 00:15\n\nGary Lineker presents highlights of the day's seven Premier League games with guests Alan Shearer and Ian Wright. Games include a clash between rivals Manchester United and Liverpool at Old Trafford. United completed the double over Brendan Rodgers' side last season and have only lost one of their last seven league games at home to Liverpool, but the visitors will be desperate to avenge their 3-0 defeat there in the previous campaign. Meanwhile, Everton take on reigning champions Chelsea at Goodison Park, which played host to a remarkable game between these sides last season - Jose Mourinho's side eventually winning 6-3. Elsewhere, Arsenal host Stoke, Manchester City travel to Crystal Palace and West Brom are home to Southampton. There's a clash of the newly-promoted teams as Norwich face Bournemouth, while Swansea are away to Watford.\n\nThe studio experts are Alan Shearer and Ian Wright.\n\nRunning sequence:\n\nEverton v Chelsea\nMan Utd v Liverpool\nPalace v Man City\nArsenal v Stoke\nNorwich v Bournemouth\nWatford v Swansea\nWest Brom v Saints\n\nGeneral\nComplete name               : Match.of.the.Day-S51E06-2015.09.12-720p.x264.mp4\nFormat                      : MPEG-4\nFormat profile              : Base Media / Version 2\nCodec ID                    : mp42\nFile size                   : 1.67 GiB\nDuration                    : 1h 25mn\nOverall bit rate mode       : Variable\nOverall bit rate            : 2 807 Kbps\nWriting application         : #YGFD                     \n\nVideo\nID                          : 1\nFormat                      : AVC\nFormat/Info                 : Advanced Video Codec\nFormat profile              : High@L4\nFormat settings, CABAC      : Yes\nFormat settings, ReFrames   : 8 frames\nCodec ID                    : avc1\nCodec ID/Info               : Advanced Video Coding\nDuration                    : 1h 25mn\nBit rate                    : 2 650 Kbps\nWidth                       : 1 280 pixels\nHeight                      : 720 pixels\nDisplay aspect ratio        : 16:9\nFrame rate mode             : Constant\nFrame rate                  : 25.000 fps\nColor space                 : YUV\nChroma subsampling          : 4:2:0\nBit depth                   : 8 bits\nScan type                   : Progressive\nBits/(Pixel*Frame)          : 0.115\nStream size                 : 1.57 GiB (94%)\nWriting library             : x264 core 130 r2273 b3065e6\nEncoding settings           : cabac=1 / ref=8 / deblock=1:0:0 / analyse=0x3:0x133 / me=umh / subme=9 / psy=1 / psy_rd=1.00:0.00 / mixed_ref=1 / me_range=16 / chroma_me=1 / trellis=2 / 8x8dct=1 / cqm=0 / deadzone=21,11 / fast_pskip=1 / chroma_qp_offset=-2 / threads=24 / lookahead_threads=2 / sliced_threads=0 / nr=0 / decimate=1 / interlaced=0 / bluray_compat=0 / constrained_intra=0 / bframes=3 / b_pyramid=2 / b_adapt=2 / b_bias=0 / direct=3 / weightb=1 / open_gop=0 / weightp=2 / keyint=250 / keyint_min=25 / scenecut=40 / intra_refresh=0 / rc_lookahead=60 / rc=abr / mbtree=1 / bitrate=2650 / ratetol=1.0 / qcomp=0.60 / qpmin=0 / qpmax=69 / qpstep=4 / ip_ratio=1.40 / aq=1:1.00\n\nAudio\nID                          : 2\nFormat                      : AAC\nFormat/Info                 : Advanced Audio Codec\nFormat profile              : LC\nCodec ID                    : 40\nDuration                    : 1h 25mn\nBit rate mode               : Variable\nBit rate                    : 160 Kbps\nMaximum bit rate            : 325 Kbps\nChannel(s)                  : 2 channels\nChannel positions           : Front: L R\nSampling rate               : 48.0 KHz\nCompression mode            : Lossy\nStream size                 : 97.5 MiB (6%)\nTitle                       : Stereo\nLanguage                    : English","torrent":{"xt":"urn:btih:49cb99e0b828176bcfda71ac446b3a8188ca2003","amp;dn":"Match+of+the+Day+-+S51E06+-+12th+September+2015+-+720p+x264","amp;tr":["udp%3A%2F%2Ftracker.openbittorrent.com%3A80","udp%3A%2F%2Fopen.demonii.com%3A1337","udp%3A%2F%2Ftracker.coppersurfer.tk%3A6969","udp%3A%2F%2Fexodus.desync.com%3A6969"],"infoHash":"49cb99e0b828176bcfda71ac446b3a8188ca2003","infoHashBuffer":{"type":"Buffer","data":[73,203,153,224,184,40,23,107,207,218,113,172,68,107,58,129,136,202,32,3]},"announce":[],"urlList":[]}}